<svg version="1.2" xmlns="http://www.w3.org/2000/svg" viewBox="0 0 255 311" width="255" height="311">
	<title>645c738fa80d019944e577c7_ChatFood by Deliverect Logo Color - Blue-svg</title>
	<style>
		.s0 { fill: #1258ff } 
		.s1 { fill: #071c4c } 
		.s2 { fill: #05cc79 } 
	</style>
	<g id="Logo">
		<g>
			<g>
				<path fill-rule="evenodd" class="s0" d="m221.7 189.9c-45 58.5-108.9 109.7-108.9 109.7v-62.1c0 0-105.2-14.6-105.2-113.4 0-62.5 52.3-112 116.5-113.4h2.7c60.2 0 108.4 40.6 117.5 98.8 4.3 27.2-6.6 59.8-22.6 80.4zm-72.7-11.8c7.2-3 13.7-7.1 19.3-12.4 5.5-5.4 9.9-11.7 12.9-18.7 3-6.9 4.6-14.4 4.6-22-0.1-15.3-6.4-29.9-17.5-40.6-11.2-10.7-26.2-16.7-41.9-16.6-15.7-0.1-30.7 5.9-41.9 16.6-11.1 10.7-17.4 25.3-17.5 40.6 0.1 7.6 1.6 15.1 4.6 22 3 7 7.4 13.3 12.9 18.7 5.6 5.3 12.1 9.4 19.3 12.4 7.2 2.8 14.9 4.3 22.6 4.2 7.8 0.1 15.5-1.4 22.6-4.2z"/>
				<path class="s1" d="m402.3 205.6c21 0 34.8-9.7 41.4-28.9l27.3 6.9c-3.6 14.4-12.5 27-25 35.4-12.8 8.9-28.1 13.6-43.8 13.4-9.8 0.2-19.5-1.5-28.5-5-9.1-3.5-17.4-8.8-24.4-15.3-14.3-13.8-21.5-31.3-21.5-52.7 0-21.1 7.2-38.5 21.6-52.3 6.9-6.7 15.2-12 24.3-15.5 9.1-3.6 18.8-5.3 28.6-5.1 15.5-0.2 30.6 4.5 43.2 13.4 12.4 8.4 21.5 20.8 25.5 35l-28.4 8.1q-4-14.7-14.8-22.2c-7.5-5.2-16.4-7.8-25.6-7.5-6.1-0.2-12.1 0.8-17.7 3.2-5.7 2.2-10.8 5.6-15 9.9q-12.8 12.7-12.8 33.1c0 13.9 4.3 25.1 12.8 33.6q12.9 12.5 32.8 12.5z"/>
				<path class="s1" d="m582.5 86.5c16.8 0 30.5 5.5 40.9 16.5 10.4 10.7 15.6 24.7 15.6 41.9v83.6h-29.9v-77.7q0.1-17-9.3-27.3-9.1-10.2-24.2-10.2c-13.1 0-23.4 4.4-31 13.1-7.4 8.7-11.1 21.5-11.1 38.4v63.7h-29.5v-200.4h29.6v79.3c11.9-13.9 28.2-20.9 48.9-20.9z"/>
				<path fill-rule="evenodd" class="s1" d="m818.4 90.4v138.1h-29.6v-15.9q-19.3 19.7-51.1 19.7c-9.2 0.1-18.4-1.7-26.9-5.2-8.5-3.5-16.2-8.6-22.6-15.1q-20.4-20.6-20.4-52.6c0-21.1 6.9-38.5 20.7-52.3q20.8-20.5 49.2-20.5 31.8-0.1 51.1 19.6v-15.8zm-75.8 116.3c6 0 12-1.1 17.6-3.4 5.5-2.3 10.6-5.6 14.8-9.7q13.9-13.5 13.9-34.3c0-13.9-4.6-25.2-13.9-34-4.2-4.2-9.2-7.6-14.8-9.9-5.5-2.2-11.5-3.4-17.6-3.4-13.2 0-24.2 4.4-33 13.1q-13 12.9-13 34.2c0 14.4 4.3 25.8 13 34.6 8.7 8.5 19.7 12.8 32.9 12.8z"/>
				<path class="s1" d="m947.9 197.5l9.1 24.3q-18.2 10.6-35 10.5c-15.7 0-28.1-4.2-37.2-12.8-9.1-8.7-13.6-21.4-13.6-38.1v-67h-30.4v-23.9h30.4v-42.9h29.5v42.9h48.3v23.9h-48.3v65.1c0 8.4 2 14.8 6.2 19.2 4.2 4.3 9.9 6.4 17.1 6.4 8.5-0.1 16.9-2.7 23.9-7.6z"/>
				<path class="s1" d="m1063.6 114.4h-46.9v114.1h-29.5v-114.1h-23.1v-23.9h23.1v-16.5q0-23 14.2-36.4 14.2-13.6 37.8-13.6c8.3 0 16.5 1.7 24.1 5l-7.1 23.6c-4.8-1.8-9.9-2.7-15.1-2.7-3.2-0.2-6.5 0.3-9.5 1.4-3.1 1.1-6 2.8-8.4 5-4.3 4.2-6.5 10.2-6.5 17.7v16.5h46.9z"/>
				<path fill-rule="evenodd" class="s1" d="m1093 107.7q22.2-20.3 54-20.3c21.2 0 39 6.8 53.4 20.3 14.6 13.3 21.9 30.6 21.9 51.7 0 21.2-7.3 38.5-21.9 52q-21.9 20.4-53.4 20.4-31.8 0-54-20.4c-14.6-13.5-21.9-30.8-21.9-52 0-21.1 7.3-38.3 21.9-51.8zm54 99.2c6.1 0 12.1-1.2 17.7-3.4 5.6-2.2 10.7-5.6 15-9.8q13.9-13.4 13.9-34.2c0-14-4.6-25.2-13.9-34-4.2-4.3-9.3-7.6-15-9.9-5.6-2.3-11.6-3.5-17.7-3.5-6.2 0-12.3 1.1-18 3.4-5.8 2.3-10.9 5.7-15.3 10q-13.6 13.2-13.6 34 0 20.8 13.6 34.2c4.4 4.2 9.6 7.6 15.3 9.9 5.7 2.2 11.8 3.3 18 3.3z"/>
				<path fill-rule="evenodd" class="s1" d="m1265.1 107.7q22.1-20.3 54-20.3c21.2 0 39 6.8 53.3 20.3 14.6 13.3 21.9 30.6 21.9 51.7 0 21.2-7.3 38.5-21.9 52q-21.9 20.4-53.4 20.4-31.8 0-54-20.4c-14.6-13.5-21.9-30.8-21.9-52 0-21.1 7.3-38.3 22-51.8zm54 99.2c6 0 12-1.2 17.7-3.4 5.6-2.2 10.7-5.6 15-9.8q13.9-13.3 13.9-34.2c0-13.9-4.6-25.2-13.9-33.9-4.3-4.3-9.4-7.6-15-10-5.6-2.3-11.6-3.5-17.7-3.4-6.2-0.1-12.4 1.1-18.1 3.4-5.7 2.3-10.9 5.6-15.2 10-9.1 8.7-13.6 20-13.6 33.9q-0.1 20.9 13.6 34.2c4.4 4.3 9.6 7.6 15.3 9.9 5.7 2.2 11.8 3.3 18 3.3z"/>
				<path fill-rule="evenodd" class="s1" d="m1566.2 28.1v200.4h-29.8v-15.6c-13.3 13-30.4 19.5-51.2 19.5-19 0-35.3-6.9-49.2-20.6-13.8-13.8-20.7-31.2-20.7-52.4 0-21.1 6.9-38.5 20.7-52.3q20.8-20.6 49.2-20.6 31.6 0 51.2 19.7v-78.2zm-76.2 178.7c6 0 12-1.1 17.6-3.4 5.5-2.3 10.6-5.5 14.8-9.7q13.9-13.2 13.9-34.3 0-20.9-13.9-34c-4.2-4.2-9.2-7.6-14.8-9.9-5.6-2.2-11.6-3.4-17.6-3.4-6.1-0.2-12.2 1-17.8 3.2-5.6 2.3-10.7 5.7-14.9 9.9q-13.1 13.2-13.1 34.3 0 21.3 13.1 34.5c4.3 4.2 9.3 7.4 15 9.7 5.6 2.2 11.6 3.3 17.7 3.1z"/>
			</g>
			<g>
				<path class="s2" d="m931.3 313.5v50.5c0 24.9-20.2 45.1-45.1 45.1-25 0-45.2-20.2-45.2-45.1 0-25 20.2-45.2 45.2-45.2h5v30.1h-5c-8.3 0-15.1 6.8-15.1 15.1 0 8.3 6.8 15 15.1 15 8.3 0 15-6.7 15-15v-66.1c-4.8-1.1-9.8-1.7-15-1.7-37.4 0-67.8 30.4-67.8 67.8 0 37.4 30.4 67.7 67.8 67.7 37.4 0 67.7-30.3 67.7-67.7 0-20.1-8.7-38.1-22.6-50.5z"/>
				<g>
					<path fill-rule="evenodd" class="s2" d="m1094.8 400.3c8.3 0 14.5-3.7 17.8-8.5l12.2 7.1c-6.3 9.4-16.6 15-30.1 15-22.7 0-37.5-15.5-37.5-36.2 0-20.3 14.7-36.2 36.4-36.2 20.5 0 34.5 16.5 34.5 36.4 0 2-0.3 4.2-0.5 6.2h-54.8c2.3 10.7 11 16.2 22 16.2zm18.3-28.4c-2.1-11.8-10.7-16.9-19.7-16.9-11.1 0-18.7 6.6-20.8 16.9z"/>
					<path class="s2" d="m1137.8 314.2h14.8v97.9h-14.8z"/>
					<path class="s2" d="m1163.1 323.5c0-5.2 4.3-9.5 9.5-9.5 5.3 0 9.5 4.3 9.5 9.5 0 5.1-4.2 9.5-9.5 9.5-5.2 0-9.5-4.4-9.5-9.5zm2.1 19.8h14.9v68.8h-14.9z"/>
					<path class="s2" d="m1259 343.3l-26.9 68.8h-17.2l-26.8-68.8h16.2l19.3 52.3 19.1-52.3z"/>
					<path fill-rule="evenodd" class="s2" d="m1296.4 400.3c8.3 0 14.5-3.7 17.8-8.5l12.2 7.1c-6.3 9.4-16.7 15-30.1 15-22.8 0-37.5-15.5-37.5-36.2 0-20.3 14.7-36.2 36.3-36.2 20.6 0 34.6 16.5 34.6 36.4 0 2-0.3 4.2-0.6 6.2h-54.7c2.3 10.7 11 16.2 22 16.2zm18.3-28.4c-2.1-11.8-10.7-16.9-19.7-16.9-11.1 0-18.7 6.6-20.8 16.9z"/>
					<path class="s2" d="m1373.6 342.1v16.1c-9.8-0.7-21.2 3.8-21.2 19.2v34.7h-14.9v-68.8h14.9v11.6c4.1-9.4 12.5-12.8 21.2-12.8z"/>
					<path fill-rule="evenodd" class="s2" d="m1413.1 400.3c8.2 0 14.4-3.7 17.7-8.5l12.3 7.1c-6.3 9.4-16.7 15-30.2 15-22.7 0-37.4-15.5-37.4-36.2 0-20.3 14.7-36.2 36.3-36.2 20.5 0 34.6 16.5 34.6 36.4 0 2-0.3 4.2-0.6 6.2h-54.8c2.4 10.7 11.1 16.2 22.1 16.2zm18.3-28.4c-2.1-11.8-10.8-16.9-19.7-16.9-11.2 0-18.7 6.6-20.8 16.9z"/>
					<path class="s2" d="m1452.2 377.7c0-20.5 15.6-36.2 36.4-36.2 13.5 0 25.2 7 30.7 17.8l-12.8 7.4c-3-6.5-9.8-10.6-18-10.6-12.2 0-21.4 9.2-21.4 21.6 0 12.4 9.2 21.6 21.4 21.6 8.2 0 15-4.2 18.3-10.6l12.8 7.3c-5.8 10.9-17.5 17.9-31 17.9-20.8 0-36.4-15.8-36.4-36.2z"/>
					<path class="s2" d="m1549.3 357.6v33.1c0 8.8 5.8 8.6 17.1 8.1v13.3c-22.9 2.8-32-3.5-32-21.4v-33.1h-12.6v-14.3h12.6v-20.6h14.9v20.6h17.1v14.3h-17.1z"/>
					<path fill-rule="evenodd" class="s2" d="m1048.5 314.2v63.5c0 20.4-16.1 36.2-36.3 36.2-20.1 0-36.4-15.8-36.4-36.2 0-20.5 16.3-36.2 36.4-36.2 8.1 0 15.6 2.6 21.6 7v-34.3zm-14.8 63.5c0-12.5-9.4-21.7-21.5-21.7-12.1 0-21.5 9.2-21.5 21.7 0 12.6 9.4 21.8 21.5 21.8 12.1 0 21.5-9.2 21.5-21.8z"/>
				</g>
			</g>
			<g>
				<path fill-rule="evenodd" class="s1" d="m722.9 361.4c0 16.3-11.3 27.2-26.9 27.2-7.8 0-14.6-3-18.9-9v8.4h-9.2v-74.3h9.6v29.2c4.4-5.7 11-8.5 18.5-8.5 15.5 0 26.9 10.8 26.9 27zm-9.8 0c0-11.3-7.7-18.6-17.9-18.6-10.1 0-17.8 7.3-17.8 18.6 0 11.3 7.7 18.8 17.8 18.8 10.3-0.1 17.9-7.4 17.9-18.8z"/>
				<path class="s1" d="m781.6 334.9l-25.7 58.4c-4.7 11.2-10.8 14.7-18.9 14.7-5.1 0-10.3-1.7-13.6-4.9l4.1-7.2c2.6 2.5 5.9 3.9 9.5 3.9 4.6 0 7.5-2.1 10.1-8.2l1.7-3.7-23.4-53h10l18.5 42.4 18.3-42.4c0 0 9.4 0 9.4 0z"/>
			</g>
		</g>
	</g>
</svg>